<svg viewBox="0 0 1500 1500" xmlns="http://www.w3.org/2000/svg">
<path d="M0 0L1500 0L1500 1500L0 1500L0 0Z" fill="#ffffff" fill-opacity="0"/>
<path d="M0 0C0 187.5 0 187.5 0 375L0 500L750 500C754.18 500 758.338 500.11 762.469 500.313C766.257 500.498 770.008 500.804 773.75 501.156C774.091 501.188 774.44 501.185 774.781 501.219C774.802 501.221 774.823 501.217 774.844 501.219C778.111 501.541 781.334 501.991 784.563 502.437C785.341 502.545 786.13 502.604 786.906 502.719C786.969 502.728 787.032 502.741 787.094 502.75C789.382 503.09 791.639 503.536 793.906 503.938C795.836 504.28 797.773 504.582 799.688 504.969C801.43 505.32 803.146 505.738 804.875 506.125C807.069 506.617 809.265 507.107 811.438 507.656C813.21 508.104 814.961 508.608 816.719 509.094C818.985 509.72 821.261 510.312 823.5 511C824.98 511.455 826.439 511.956 827.906 512.438C830.165 513.178 832.427 513.916 834.656 514.719C836.391 515.343 838.096 516.026 839.813 516.688C841.987 517.525 844.168 518.354 846.312 519.25C847.512 519.751 848.685 520.294 849.875 520.812C852.35 521.892 854.817 522.999 857.25 524.156C858.564 524.782 859.855 525.446 861.156 526.094C863.412 527.215 865.659 528.344 867.875 529.531C869.2 530.241 870.502 530.986 871.812 531.719C873.915 532.894 875.998 534.079 878.062 535.312C879.424 536.126 880.781 536.942 882.125 537.781C884.183 539.065 886.233 540.377 888.25 541.719C889.686 542.674 891.116 543.641 892.531 544.625C894.182 545.772 895.816 546.939 897.438 548.125C899.106 549.346 900.738 550.614 902.375 551.875C903.939 553.08 905.496 554.29 907.031 555.531C908.471 556.696 909.899 557.867 911.313 559.062C912.914 560.416 914.496 561.795 916.063 563.187C917.419 564.394 918.764 565.608 920.094 566.844C921.676 568.314 923.237 569.802 924.781 571.312C926.097 572.6 927.4 573.903 928.688 575.219C930.167 576.731 931.621 578.263 933.063 579.812C934.188 581.022 935.304 582.237 936.406 583.469C938.145 585.413 939.854 587.377 941.531 589.375C942.307 590.299 943.081 591.221 943.844 592.156C945.376 594.036 946.865 595.951 948.344 597.875C949.549 599.444 950.738 601.027 951.906 602.625C952.881 603.958 953.833 605.303 954.781 606.656C956.006 608.403 957.225 610.158 958.406 611.938C959.652 613.814 960.867 615.713 962.063 617.625C962.886 618.941 963.701 620.261 964.5 621.594C965.899 623.926 967.238 626.307 968.563 628.688C969.139 629.723 969.751 630.737 970.313 631.781C971.629 634.23 972.857 636.722 974.094 639.219C974.636 640.313 975.192 641.397 975.719 642.5C976.931 645.041 978.09 647.6 979.219 650.188C979.71 651.313 980.213 652.428 980.688 653.563C981.611 655.77 982.482 658.011 983.344 660.25C983.954 661.835 984.609 663.399 985.188 665C986.255 667.954 987.229 670.965 988.188 673.969C988.368 674.535 988.573 675.089 988.75 675.656C988.779 675.751 988.814 675.843 988.844 675.938C990.018 679.728 991.097 683.54 992.094 687.406C992.104 687.448 992.114 687.49 992.125 687.531C992.128 687.541 992.122 687.553 992.125 687.563C993.134 691.485 994.054 695.443 994.875 699.438C994.888 699.5 994.894 699.563 994.906 699.625C994.908 699.635 994.905 699.646 994.906 699.656C995.644 703.263 996.295 706.901 996.875 710.562C996.948 711.024 997.054 711.476 997.125 711.938C997.131 711.98 997.15 712.02 997.156 712.062C997.578 714.835 997.889 717.637 998.219 720.438C998.376 721.775 998.582 723.093 998.719 724.438C999.145 728.634 999.472 732.87 999.688 737.125C999.903 741.386 1000 745.686 1000 750C1000 883.756 894.968 992.992 762.875 999.687C758.614 999.903 754.314 1000 750 1000C611.929 1000 500 888.072 500 750L0 750C0.00016276 1164.21 335.786 1500 750 1500L1500 1500L1500 750C1500 613.346 1463.26 485.34 1399.41 375C1269.71 150.886 1027.56 0.000366211 750 0C375 0 375 0 0 0Z" fill="#293033"/>
</svg>